<svg id="mermaid-1595617948443" width="4198.32421875" xmlns="http://www.w3.org/2000/svg" class="statediagram" height="2096.5" viewBox="0 0 4198.32421875 2096.5"><style>#mermaid-1595617948443 .label{font-family:'trebuchet ms', verdana, arial;font-family:var(--mermaid-font-family);color:#333}#mermaid-1595617948443 .label text{fill:#333}#mermaid-1595617948443 .node rect,#mermaid-1595617948443 .node circle,#mermaid-1595617948443 .node ellipse,#mermaid-1595617948443 .node polygon,#mermaid-1595617948443 .node path{fill:#ECECFF;stroke:#9370db;stroke-width:1px}#mermaid-1595617948443 .node .label{text-align:center}#mermaid-1595617948443 .node.clickable{cursor:pointer}#mermaid-1595617948443 .arrowheadPath{fill:#333}#mermaid-1595617948443 .edgePath .path{stroke:#333;stroke-width:1.5px}#mermaid-1595617948443 .edgeLabel{background-color:#e8e8e8;text-align:center}#mermaid-1595617948443 .edgeLabel rect{opacity:0.5}#mermaid-1595617948443 .cluster rect{fill:#ffffde;stroke:#aa3;stroke-width:1px}#mermaid-1595617948443 .cluster text{fill:#333}#mermaid-1595617948443 div.mermaidTooltip{position:absolute;text-align:center;max-width:200px;padding:2px;font-family:'trebuchet ms', verdana, arial;font-family:var(--mermaid-font-family);font-size:12px;background:#ffffde;border:1px solid #aa3;border-radius:2px;pointer-events:none;z-index:100}#mermaid-1595617948443 .actor{stroke:#ccf;fill:#ECECFF}#mermaid-1595617948443 text.actor{fill:#000;stroke:none}#mermaid-1595617948443 .actor-line{stroke:grey}#mermaid-1595617948443 .messageLine0{stroke-width:1.5;stroke-dasharray:'2 2';stroke:#333}#mermaid-1595617948443 .messageLine1{stroke-width:1.5;stroke-dasharray:'2 2';stroke:#333}#mermaid-1595617948443 #arrowhead{fill:#333}#mermaid-1595617948443 .sequenceNumber{fill:#fff}#mermaid-1595617948443 #sequencenumber{fill:#333}#mermaid-1595617948443 #crosshead path{fill:#333 !important;stroke:#333 !important}#mermaid-1595617948443 .messageText{fill:#333;stroke:none}#mermaid-1595617948443 .labelBox{stroke:#ccf;fill:#ECECFF}#mermaid-1595617948443 .labelText{fill:#000;stroke:none}#mermaid-1595617948443 .loopText{fill:#000;stroke:none}#mermaid-1595617948443 .loopLine{stroke-width:2;stroke-dasharray:'2 2';stroke:#ccf}#mermaid-1595617948443 .note{stroke:#aa3;fill:#fff5ad}#mermaid-1595617948443 .noteText{fill:black;stroke:none;font-family:'trebuchet ms', verdana, arial;font-family:var(--mermaid-font-family);font-size:14px}#mermaid-1595617948443 .activation0{fill:#f4f4f4;stroke:#666}#mermaid-1595617948443 .activation1{fill:#f4f4f4;stroke:#666}#mermaid-1595617948443 .activation2{fill:#f4f4f4;stroke:#666}#mermaid-1595617948443 .mermaid-main-font{font-family:"trebuchet ms", verdana, arial;font-family:var(--mermaid-font-family)}#mermaid-1595617948443 .section{stroke:none;opacity:0.2}#mermaid-1595617948443 .section0{fill:rgba(102,102,255,0.49)}#mermaid-1595617948443 .section2{fill:#fff400}#mermaid-1595617948443 .section1,#mermaid-1595617948443 .section3{fill:#fff;opacity:0.2}#mermaid-1595617948443 .sectionTitle0{fill:#333}#mermaid-1595617948443 .sectionTitle1{fill:#333}#mermaid-1595617948443 .sectionTitle2{fill:#333}#mermaid-1595617948443 .sectionTitle3{fill:#333}#mermaid-1595617948443 .sectionTitle{text-anchor:start;font-size:11px;text-height:14px;font-family:'trebuchet ms', verdana, arial;font-family:var(--mermaid-font-family)}#mermaid-1595617948443 .grid .tick{stroke:#d3d3d3;opacity:0.8;shape-rendering:crispEdges}#mermaid-1595617948443 .grid .tick text{font-family:'trebuchet ms', verdana, arial;font-family:var(--mermaid-font-family)}#mermaid-1595617948443 .grid path{stroke-width:0}#mermaid-1595617948443 .today{fill:none;stroke:red;stroke-width:2px}#mermaid-1595617948443 .task{stroke-width:2}#mermaid-1595617948443 .taskText{text-anchor:middle;font-family:'trebuchet ms', verdana, arial;font-family:var(--mermaid-font-family)}#mermaid-1595617948443 .taskText:not([font-size]){font-size:11px}#mermaid-1595617948443 .taskTextOutsideRight{fill:#000;text-anchor:start;font-size:11px;font-family:'trebuchet ms', verdana, arial;font-family:var(--mermaid-font-family)}#mermaid-1595617948443 .taskTextOutsideLeft{fill:#000;text-anchor:end;font-size:11px}#mermaid-1595617948443 .task.clickable{cursor:pointer}#mermaid-1595617948443 .taskText.clickable{cursor:pointer;fill:#003163 !important;font-weight:bold}#mermaid-1595617948443 .taskTextOutsideLeft.clickable{cursor:pointer;fill:#003163 !important;font-weight:bold}#mermaid-1595617948443 .taskTextOutsideRight.clickable{cursor:pointer;fill:#003163 !important;font-weight:bold}#mermaid-1595617948443 .taskText0,#mermaid-1595617948443 .taskText1,#mermaid-1595617948443 .taskText2,#mermaid-1595617948443 .taskText3{fill:#fff}#mermaid-1595617948443 .task0,#mermaid-1595617948443 .task1,#mermaid-1595617948443 .task2,#mermaid-1595617948443 .task3{fill:#8a90dd;stroke:#534fbc}#mermaid-1595617948443 .taskTextOutside0,#mermaid-1595617948443 .taskTextOutside2{fill:#000}#mermaid-1595617948443 .taskTextOutside1,#mermaid-1595617948443 .taskTextOutside3{fill:#000}#mermaid-1595617948443 .active0,#mermaid-1595617948443 .active1,#mermaid-1595617948443 .active2,#mermaid-1595617948443 .active3{fill:#bfc7ff;stroke:#534fbc}#mermaid-1595617948443 .activeText0,#mermaid-1595617948443 .activeText1,#mermaid-1595617948443 .activeText2,#mermaid-1595617948443 .activeText3{fill:#000 !important}#mermaid-1595617948443 .done0,#mermaid-1595617948443 .done1,#mermaid-1595617948443 .done2,#mermaid-1595617948443 .done3{stroke:grey;fill:#d3d3d3;stroke-width:2}#mermaid-1595617948443 .doneText0,#mermaid-1595617948443 .doneText1,#mermaid-1595617948443 .doneText2,#mermaid-1595617948443 .doneText3{fill:#000 !important}#mermaid-1595617948443 .crit0,#mermaid-1595617948443 .crit1,#mermaid-1595617948443 .crit2,#mermaid-1595617948443 .crit3{stroke:#f88;fill:red;stroke-width:2}#mermaid-1595617948443 .activeCrit0,#mermaid-1595617948443 .activeCrit1,#mermaid-1595617948443 .activeCrit2,#mermaid-1595617948443 .activeCrit3{stroke:#f88;fill:#bfc7ff;stroke-width:2}#mermaid-1595617948443 .doneCrit0,#mermaid-1595617948443 .doneCrit1,#mermaid-1595617948443 .doneCrit2,#mermaid-1595617948443 .doneCrit3{stroke:#f88;fill:#d3d3d3;stroke-width:2;cursor:pointer;shape-rendering:crispEdges}#mermaid-1595617948443 .milestone{transform:rotate(45deg) scale(0.8, 0.8)}#mermaid-1595617948443 .milestoneText{font-style:italic}#mermaid-1595617948443 .doneCritText0,#mermaid-1595617948443 .doneCritText1,#mermaid-1595617948443 .doneCritText2,#mermaid-1595617948443 .doneCritText3{fill:#000 !important}#mermaid-1595617948443 .activeCritText0,#mermaid-1595617948443 .activeCritText1,#mermaid-1595617948443 .activeCritText2,#mermaid-1595617948443 .activeCritText3{fill:#000 !important}#mermaid-1595617948443 .titleText{text-anchor:middle;font-size:18px;fill:#000;font-family:'trebuchet ms', verdana, arial;font-family:var(--mermaid-font-family)}#mermaid-1595617948443 g.classGroup text{fill:#9370db;stroke:none;font-family:'trebuchet ms', verdana, arial;font-family:var(--mermaid-font-family);font-size:10px}#mermaid-1595617948443 g.classGroup text .title{font-weight:bolder}#mermaid-1595617948443 g.clickable{cursor:pointer}#mermaid-1595617948443 g.classGroup rect{fill:#ECECFF;stroke:#9370db}#mermaid-1595617948443 g.classGroup line{stroke:#9370db;stroke-width:1}#mermaid-1595617948443 .classLabel .box{stroke:none;stroke-width:0;fill:#ECECFF;opacity:0.5}#mermaid-1595617948443 .classLabel .label{fill:#9370db;font-size:10px}#mermaid-1595617948443 .relation{stroke:#9370db;stroke-width:1;fill:none}#mermaid-1595617948443 .dashed-line{stroke-dasharray:3}#mermaid-1595617948443 #compositionStart{fill:#9370db;stroke:#9370db;stroke-width:1}#mermaid-1595617948443 #compositionEnd{fill:#9370db;stroke:#9370db;stroke-width:1}#mermaid-1595617948443 #aggregationStart{fill:#ECECFF;stroke:#9370db;stroke-width:1}#mermaid-1595617948443 #aggregationEnd{fill:#ECECFF;stroke:#9370db;stroke-width:1}#mermaid-1595617948443 #dependencyStart{fill:#9370db;stroke:#9370db;stroke-width:1}#mermaid-1595617948443 #dependencyEnd{fill:#9370db;stroke:#9370db;stroke-width:1}#mermaid-1595617948443 #extensionStart{fill:#9370db;stroke:#9370db;stroke-width:1}#mermaid-1595617948443 #extensionEnd{fill:#9370db;stroke:#9370db;stroke-width:1}#mermaid-1595617948443 .commit-id,#mermaid-1595617948443 .commit-msg,#mermaid-1595617948443 .branch-label{fill:lightgrey;color:lightgrey;font-family:'trebuchet ms', verdana, arial;font-family:var(--mermaid-font-family)}#mermaid-1595617948443 .pieTitleText{text-anchor:middle;font-size:25px;fill:#000;font-family:'trebuchet ms', verdana, arial;font-family:var(--mermaid-font-family)}#mermaid-1595617948443 .slice{font-family:'trebuchet ms', verdana, arial;font-family:var(--mermaid-font-family)}#mermaid-1595617948443 g.stateGroup text{fill:#9370db;stroke:none;font-size:10px;font-family:'trebuchet ms', verdana, arial;font-family:var(--mermaid-font-family)}#mermaid-1595617948443 g.stateGroup text{fill:#9370db;stroke:none;font-size:10px}#mermaid-1595617948443 g.stateGroup .state-title{font-weight:bolder;fill:#000}#mermaid-1595617948443 g.stateGroup rect{fill:#ECECFF;stroke:#9370db}#mermaid-1595617948443 g.stateGroup line{stroke:#9370db;stroke-width:1}#mermaid-1595617948443 .transition{stroke:#9370db;stroke-width:1;fill:none}#mermaid-1595617948443 .stateGroup .composit{fill:white;border-bottom:1px}#mermaid-1595617948443 .stateGroup .alt-composit{fill:#e0e0e0;border-bottom:1px}#mermaid-1595617948443 .state-note{stroke:#aa3;fill:#fff5ad}#mermaid-1595617948443 .state-note text{fill:black;stroke:none;font-size:10px}#mermaid-1595617948443 .stateLabel .box{stroke:none;stroke-width:0;fill:#ECECFF;opacity:0.5}#mermaid-1595617948443 .stateLabel text{fill:#000;font-size:10px;font-weight:bold;font-family:'trebuchet ms', verdana, arial;font-family:var(--mermaid-font-family)}#mermaid-1595617948443 .node circle.state-start{fill:black;stroke:black}#mermaid-1595617948443 .node circle.state-end{fill:black;stroke:white;stroke-width:1.5}#mermaid-1595617948443 #statediagram-barbEnd{fill:#9370db}#mermaid-1595617948443 .statediagram-cluster rect{fill:#ECECFF;stroke:#9370db;stroke-width:1px}#mermaid-1595617948443 .statediagram-cluster rect.outer{rx:5px;ry:5px}#mermaid-1595617948443 .statediagram-state .divider{stroke:#9370db}#mermaid-1595617948443 .statediagram-state .title-state{rx:5px;ry:5px}#mermaid-1595617948443 .statediagram-cluster.statediagram-cluster .inner{fill:white}#mermaid-1595617948443 .statediagram-cluster.statediagram-cluster-alt .inner{fill:#e0e0e0}#mermaid-1595617948443 .statediagram-cluster .inner{rx:0;ry:0}#mermaid-1595617948443 .statediagram-state rect.basic{rx:5px;ry:5px}#mermaid-1595617948443 .statediagram-state rect.divider{stroke-dasharray:10,10;fill:#efefef}#mermaid-1595617948443 .note-edge{stroke-dasharray:5}#mermaid-1595617948443 .statediagram-note rect{fill:#fff5ad;stroke:#aa3;stroke-width:1px;rx:0;ry:0}:root{--mermaid-font-family: '"trebuchet ms", verdana, arial';--mermaid-font-family: "Comic Sans MS", "Comic Sans", cursive}

:root { --mermaid-font-family: "trebuchet ms", verdana, arial;}</style><style>#mermaid-1595617948443 {
    color: rgb(0, 0, 0);
    font: 16px "trebuchet ms", verdana, arial;
  }</style><g><defs><marker id="statediagram-barbEnd" refX="19" refY="7" markerWidth="20" markerHeight="14" markerUnits="0" orient="auto"><path d="M 19,7 L9,13 L14,7 L9,1 Z"></path></marker></defs><g class="root"><g class="clusters"><g class="note-cluster" id="0----parent"><rect x="8" y="72" width="620.09375" height="219" fill="none"></rect></g></g><g class="edgePaths"><path d="M318.046875,22L318.046875,26.166666666666668C318.046875,30.333333333333332,318.046875,38.666666666666664,318.046875,47C318.046875,55.333333333333336,318.046875,63.666666666666664,318.046875,72C318.046875,80.33333333333333,318.046875,88.66666666666667,318.046875,92.83333333333333L318.046875,97" id="edge0" class="transition" marker-end="url(#statediagram-barbEnd)"></path><path d="M318.046875,131L318.046875,136.75C318.046875,142.5,318.046875,154,318.046875,165.5C318.046875,177,318.046875,188.5,318.046875,194.25L318.046875,200" class="transition note-edge"></path><path d="M369.21966019417476,131L386.52810224514565,136.75C403.83654429611653,142.5,438.4534283980583,154,758.9532766990291,170.2253200091174C1079.453125,186.45064001823482,1685.8359375,207.40128003646964,1989.02734375,217.87660004558703L2292.21875,228.35192005470446" id="edge1" class="transition" marker-end="url(#statediagram-barbEnd)"></path><path d="M2292.21875,237.3869142786865L2018.1979166666667,246.3224285655721C1744.1770833333333,255.25794285245766,1196.1354166666667,273.1289714262288,922.1145833333334,287.81448571311444C648.09375,302.5,648.09375,314,648.09375,330.5416666666667C648.09375,347.0833333333333,648.09375,368.6666666666667,648.09375,390.25C648.09375,411.8333333333333,648.09375,433.4166666666667,648.09375,452.7916666666667C648.09375,472.1666666666667,648.09375,489.3333333333333,648.09375,506.5C648.09375,523.6666666666666,648.09375,540.8333333333334,648.09375,558C648.09375,575.1666666666666,648.09375,592.3333333333334,648.09375,609.5C648.09375,626.6666666666666,648.09375,643.8333333333334,648.09375,663.2083333333334C648.09375,682.5833333333334,648.09375,704.1666666666666,648.09375,725.75C648.09375,747.3333333333334,648.09375,768.9166666666666,648.09375,790.5C648.09375,812.0833333333334,648.09375,833.6666666666666,648.09375,855.25C648.09375,876.8333333333334,648.09375,898.4166666666666,648.09375,920C648.09375,941.5833333333334,648.09375,963.1666666666666,648.09375,984.75C648.09375,1006.3333333333334,648.09375,1027.9166666666667,648.09375,1049.5C648.09375,1071.0833333333333,648.09375,1092.6666666666667,648.09375,1114.25C648.09375,1135.8333333333333,648.09375,1157.4166666666667,648.09375,1179C648.09375,1200.5833333333333,648.09375,1222.1666666666667,648.09375,1243.75C648.09375,1265.3333333333333,648.09375,1286.9166666666667,648.09375,1308.5C648.09375,1330.0833333333333,648.09375,1351.6666666666667,648.09375,1373.25C648.09375,1394.8333333333333,648.09375,1416.4166666666667,648.09375,1438C648.09375,1459.5833333333333,648.09375,1481.1666666666667,648.09375,1502.75C648.09375,1524.3333333333333,648.09375,1545.9166666666667,648.09375,1567.5C648.09375,1589.0833333333333,648.09375,1610.6666666666667,648.09375,1632.25C648.09375,1653.8333333333333,648.09375,1675.4166666666667,653.3421513030888,1691.9583333333333C658.5905526061775,1708.5,669.0873552123552,1720,674.335756515444,1725.75L679.5841578185328,1731.5" id="edge2" class="transition" marker-end="url(#statediagram-barbEnd)"></path><path d="M2303.6953125,395.15960545128075L2053.7213541666665,405.13300454273394C1803.7473958333333,415.1064036341872,1303.7994791666667,435.05320181709357,1053.8255208333333,453.6099342418801C803.8515625,472.1666666666667,803.8515625,489.3333333333333,803.8515625,506.5C803.8515625,523.6666666666666,803.8515625,540.8333333333334,803.8515625,558C803.8515625,575.1666666666666,803.8515625,592.3333333333334,803.8515625,609.5C803.8515625,626.6666666666666,803.8515625,643.8333333333334,803.8515625,663.2083333333334C803.8515625,682.5833333333334,803.8515625,704.1666666666666,803.8515625,725.75C803.8515625,747.3333333333334,803.8515625,768.9166666666666,803.8515625,790.5C803.8515625,812.0833333333334,803.8515625,833.6666666666666,803.8515625,855.25C803.8515625,876.8333333333334,803.8515625,898.4166666666666,803.8515625,920C803.8515625,941.5833333333334,803.8515625,963.1666666666666,803.8515625,984.75C803.8515625,1006.3333333333334,803.8515625,1027.9166666666667,803.8515625,1049.5C803.8515625,1071.0833333333333,803.8515625,1092.6666666666667,803.8515625,1114.25C803.8515625,1135.8333333333333,803.8515625,1157.4166666666667,803.8515625,1179C803.8515625,1200.5833333333333,803.8515625,1222.1666666666667,803.8515625,1243.75C803.8515625,1265.3333333333333,803.8515625,1286.9166666666667,803.8515625,1308.5C803.8515625,1330.0833333333333,803.8515625,1351.6666666666667,803.8515625,1373.25C803.8515625,1394.8333333333333,803.8515625,1416.4166666666667,803.8515625,1438C803.8515625,1459.5833333333333,803.8515625,1481.1666666666667,803.8515625,1502.75C803.8515625,1524.3333333333333,803.8515625,1545.9166666666667,803.8515625,1567.5C803.8515625,1589.0833333333333,803.8515625,1610.6666666666667,803.8515625,1632.25C803.8515625,1653.8333333333333,803.8515625,1675.4166666666667,795.2681889478764,1691.9583333333333C786.6848153957529,1708.5,769.5180682915058,1720,760.9346947393823,1725.75L752.3513211872587,1731.5" id="edge3" class="transition" marker-end="url(#statediagram-barbEnd)"></path><path d="M1275.1944377413126,756L1261.8365106177605,761.75C1248.4785834942084,767.5,1221.7627292471043,779,1208.4048021235521,795.5416666666666C1195.046875,812.0833333333334,1195.046875,833.6666666666666,1195.046875,855.25C1195.046875,876.8333333333334,1195.046875,898.4166666666666,1195.046875,920C1195.046875,941.5833333333334,1195.046875,963.1666666666666,1195.046875,984.75C1195.046875,1006.3333333333334,1195.046875,1027.9166666666667,1195.046875,1049.5C1195.046875,1071.0833333333333,1195.046875,1092.6666666666667,1195.046875,1114.25C1195.046875,1135.8333333333333,1195.046875,1157.4166666666667,1195.046875,1179C1195.046875,1200.5833333333333,1195.046875,1222.1666666666667,1195.046875,1243.75C1195.046875,1265.3333333333333,1195.046875,1286.9166666666667,1195.046875,1308.5C1195.046875,1330.0833333333333,1195.046875,1351.6666666666667,1195.046875,1373.25C1195.046875,1394.8333333333333,1195.046875,1416.4166666666667,1195.046875,1438C1195.046875,1459.5833333333333,1195.046875,1481.1666666666667,1195.046875,1502.75C1195.046875,1524.3333333333333,1195.046875,1545.9166666666667,1195.046875,1567.5C1195.046875,1589.0833333333333,1195.046875,1610.6666666666667,1195.046875,1632.25C1195.046875,1653.8333333333333,1195.046875,1675.4166666666667,1130.04296875,1694.8359636480102C1065.0390625,1714.2552606293539,935.03125,1731.5105212587077,870.02734375,1740.1381515733847L805.0234375,1748.7657818880614" id="edge4" class="transition" marker-end="url(#statediagram-barbEnd)"></path><path d="M609.3671875,1787.8997613365154L585.2994791666666,1794.3331344470962C561.2317708333334,1800.766507557677,513.0963541666666,1813.6332537788385,747.5755208333334,1830.2825774791575C982.0546875,1846.9319011794769,1499.1484375,1867.3638023589538,1757.6953125,1877.5797529486924L2016.2421875,1887.7957035384306" id="edge5" class="transition" marker-end="url(#statediagram-barbEnd)"></path><path d="M2426.75,263.25L2426.75,267.875C2426.75,272.5,2426.75,281.75,2426.75,292.125C2426.75,302.5,2426.75,314,2426.75,325.5C2426.75,337,2426.75,348.5,2426.75,354.25L2426.75,360" id="edge6" class="transition" marker-end="url(#statediagram-barbEnd)"></path><path d="M2303.6953125,399.8883506041233L2186.4251302083335,409.07362550343606C2069.1549479166665,418.25890040274885,1834.6145833333333,436.6294502013745,1717.3444010416667,451.5647251006872C1600.07421875,466.5,1600.07421875,478,1600.07421875,483.75L1600.07421875,489.5" id="edge7" class="transition" marker-end="url(#statediagram-barbEnd)"></path><path d="M1162.79296875,625.7364133635186L1128.7272135416667,631.6136778029322C1094.6614583333333,637.4909422423458,1026.5299479166667,649.245471121173,992.4641927083334,665.9144022272532C958.3984375,682.5833333333334,958.3984375,704.1666666666666,958.3984375,725.75C958.3984375,747.3333333333334,958.3984375,768.9166666666666,958.3984375,790.5C958.3984375,812.0833333333334,958.3984375,833.6666666666666,958.3984375,855.25C958.3984375,876.8333333333334,958.3984375,898.4166666666666,958.3984375,920C958.3984375,941.5833333333334,958.3984375,963.1666666666666,958.3984375,984.75C958.3984375,1006.3333333333334,958.3984375,1027.9166666666667,958.3984375,1049.5C958.3984375,1071.0833333333333,958.3984375,1092.6666666666667,958.3984375,1114.25C958.3984375,1135.8333333333333,958.3984375,1157.4166666666667,958.3984375,1179C958.3984375,1200.5833333333333,958.3984375,1222.1666666666667,958.3984375,1243.75C958.3984375,1265.3333333333333,958.3984375,1286.9166666666667,958.3984375,1308.5C958.3984375,1330.0833333333333,958.3984375,1351.6666666666667,958.3984375,1373.25C958.3984375,1394.8333333333333,958.3984375,1416.4166666666667,958.3984375,1438C958.3984375,1459.5833333333333,958.3984375,1481.1666666666667,958.3984375,1502.75C958.3984375,1524.3333333333333,958.3984375,1545.9166666666667,958.3984375,1567.5C958.3984375,1589.0833333333333,958.3984375,1610.6666666666667,958.3984375,1632.25C958.3984375,1653.8333333333333,958.3984375,1675.4166666666667,958.3984375,1697C958.3984375,1718.5833333333333,958.3984375,1740.1666666666667,958.3984375,1761.75C958.3984375,1783.3333333333333,958.3984375,1804.9166666666667,1134.7057291666667,1825.6762367491167C1311.0130208333333,1846.4358068315667,1663.6276041666667,1866.371613663133,1839.9348958333333,1876.3395170789165L2016.2421875,1886.3074204946997" id="edge8" class="transition" marker-end="url(#statediagram-barbEnd)"></path><path d="M1494.51171875,522.3418248873105L1454.91015625,528.2848540727588C1415.30859375,534.227883258207,1336.10546875,546.1139416291035,1296.50390625,557.8069708145517C1256.90234375,569.5,1256.90234375,581,1256.90234375,586.75L1256.90234375,592.5" id="edge9" class="transition" marker-end="url(#statediagram-barbEnd)"></path><path d="M1286.1378564927184,626.5L1296.026338743932,632.25C1305.9148209951456,638,1325.6917854975727,649.5,1335.5802677487864,661C1345.46875,672.5,1345.46875,684,1345.46875,689.75L1345.46875,695.5" id="edge10" class="transition" marker-end="url(#statediagram-barbEnd)"></path><path d="M1345.46875,756L1345.46875,761.75C1345.46875,767.5,1345.46875,779,1345.46875,795.5416666666666C1345.46875,812.0833333333334,1345.46875,833.6666666666666,1345.46875,855.25C1345.46875,876.8333333333334,1345.46875,898.4166666666666,1345.46875,920C1345.46875,941.5833333333334,1345.46875,963.1666666666666,1345.46875,984.75C1345.46875,1006.3333333333334,1345.46875,1027.9166666666667,1345.46875,1049.5C1345.46875,1071.0833333333333,1345.46875,1092.6666666666667,1345.46875,1114.25C1345.46875,1135.8333333333333,1345.46875,1157.4166666666667,1345.46875,1179C1345.46875,1200.5833333333333,1345.46875,1222.1666666666667,1345.46875,1243.75C1345.46875,1265.3333333333333,1345.46875,1286.9166666666667,1345.46875,1308.5C1345.46875,1330.0833333333333,1345.46875,1351.6666666666667,1345.46875,1373.25C1345.46875,1394.8333333333333,1345.46875,1416.4166666666667,1345.46875,1438C1345.46875,1459.5833333333333,1345.46875,1481.1666666666667,1345.46875,1502.75C1345.46875,1524.3333333333333,1345.46875,1545.9166666666667,1345.46875,1567.5C1345.46875,1589.0833333333333,1345.46875,1610.6666666666667,1345.46875,1632.25C1345.46875,1653.8333333333333,1345.46875,1675.4166666666667,1345.46875,1697C1345.46875,1718.5833333333333,1345.46875,1740.1666666666667,1345.46875,1761.75C1345.46875,1783.3333333333333,1345.46875,1804.9166666666667,1457.2643229166667,1825.255693000443C1569.0598958333333,1845.5947193342192,1792.6510416666667,1864.689438668439,1904.4466145833333,1874.2367983355487L2016.2421875,1883.7841580026584" id="edge11" class="transition" marker-end="url(#statediagram-barbEnd)"></path><path d="M1705.63671875,509.0842328181837L2038.6608072916667,517.2368606818197C2371.6848958333335,525.3894885454557,3037.7330729166665,541.6947442727279,3370.7571614583335,558.4307054696973C3703.78125,575.1666666666666,3703.78125,592.3333333333334,3703.78125,609.5C3703.78125,626.6666666666666,3703.78125,643.8333333333334,3703.78125,663.2083333333334C3703.78125,682.5833333333334,3703.78125,704.1666666666666,3703.78125,725.75C3703.78125,747.3333333333334,3703.78125,768.9166666666666,3571.1295572916665,788.9557204378856C3438.4778645833335,808.9947742091045,3173.1744791666665,827.4895484182092,3040.5227864583335,836.7369355227614L2907.87109375,845.9843226273136" id="edge12" class="transition" marker-end="url(#statediagram-barbEnd)"></path><path d="M1441.8515625,744.8233557776107L1480.3209635416667,752.4361298146756C1518.7903645833333,760.0489038517404,1595.7291666666667,775.2744519258703,1795.7610677083333,792.3776329994288C1995.79296875,809.4808140729874,2318.91796875,828.4616281459747,2480.48046875,837.9520351824684L2642.04296875,847.442442218962" id="edge13" class="transition" marker-end="url(#statediagram-barbEnd)"></path><path d="M2642.04296875,861.9765589936953L2450.9563802083335,871.6471324947461C2259.8697916666665,881.3177059957969,1877.6966145833333,900.6588529978984,1686.6100260416667,916.0794264989491C1495.5234375,931.5,1495.5234375,943,1495.5234375,948.75L1495.5234375,954.5" id="edge14" class="transition" marker-end="url(#statediagram-barbEnd)"></path><path d="M2907.87109375,866.8483275162273L3009.388671875,875.706939596856C3110.90625,884.5655516774849,3313.94140625,902.2827758387424,3415.458984375,921.9330545860379C3516.9765625,941.5833333333334,3516.9765625,963.1666666666666,3516.9765625,984.75C3516.9765625,1006.3333333333334,3516.9765625,1027.9166666666667,3260.3938802083335,1048.8423004891717C3003.8111979166665,1069.7679343116768,2490.6458333333335,1090.0358686233537,2234.0631510416665,1100.169835779192L1977.48046875,1110.3038029350305" id="edge15" class="transition" marker-end="url(#statediagram-barbEnd)"></path><path d="M1495.5234375,1015L1495.5234375,1020.75C1495.5234375,1026.5,1495.5234375,1038,1542.544921875,1051.719368270912C1589.56640625,1065.438736541824,1683.609375,1081.3774730836478,1730.630859375,1089.3468413545597L1777.65234375,1097.3162096254716" id="edge16" class="transition" marker-end="url(#statediagram-barbEnd)"></path><path d="M1877.56640625,1144.5L1877.56640625,1150.25C1877.56640625,1156,1877.56640625,1167.5,1877.56640625,1179C1877.56640625,1190.5,1877.56640625,1202,1877.56640625,1207.75L1877.56640625,1213.5" id="edge17" class="transition" marker-end="url(#statediagram-barbEnd)"></path><path d="M1765.41015625,1262.7769268951683L1720.490234375,1270.397439079307C1675.5703125,1278.0179512634456,1585.73046875,1293.2589756317227,1540.810546875,1311.6711544825282C1495.890625,1330.0833333333333,1495.890625,1351.6666666666667,1495.890625,1373.25C1495.890625,1394.8333333333333,1495.890625,1416.4166666666667,1495.890625,1438C1495.890625,1459.5833333333333,1495.890625,1481.1666666666667,1495.890625,1502.75C1495.890625,1524.3333333333333,1495.890625,1545.9166666666667,1495.890625,1567.5C1495.890625,1589.0833333333333,1495.890625,1610.6666666666667,1495.890625,1632.25C1495.890625,1653.8333333333333,1495.890625,1675.4166666666667,1495.890625,1697C1495.890625,1718.5833333333333,1495.890625,1740.1666666666667,1495.890625,1761.75C1495.890625,1783.3333333333333,1495.890625,1804.9166666666667,1582.6158854166667,1824.9477312166591C1669.3411458333333,1844.9787957666515,1842.7916666666667,1863.4575915333032,1929.5169270833333,1872.6969894166289L2016.2421875,1881.936387299955" id="edge18" class="transition" marker-end="url(#statediagram-barbEnd)"></path><path d="M707.1953125,1792L707.1953125,1797.75C707.1953125,1803.5,707.1953125,1815,925.3697916666666,1830.866085681145C1143.5442708333333,1846.7321713622903,1579.8932291666667,1866.9643427245803,1798.0677083333333,1877.0804284057256L2016.2421875,1887.1965140868708" id="edge19" class="transition" marker-end="url(#statediagram-barbEnd)"></path><path d="M2549.8046875,395.74670158210876L2770.888671875,405.62225131842393C2991.97265625,415.4978010547391,3434.140625,435.2489005273696,3655.224609375,453.70778359701814C3876.30859375,472.1666666666667,3876.30859375,489.3333333333333,3876.30859375,506.5C3876.30859375,523.6666666666666,3876.30859375,540.8333333333334,3876.30859375,558C3876.30859375,575.1666666666666,3876.30859375,592.3333333333334,3876.30859375,609.5C3876.30859375,626.6666666666666,3876.30859375,643.8333333333334,3876.30859375,663.2083333333334C3876.30859375,682.5833333333334,3876.30859375,704.1666666666666,3876.30859375,725.75C3876.30859375,747.3333333333334,3876.30859375,768.9166666666666,3876.30859375,790.5C3876.30859375,812.0833333333334,3876.30859375,833.6666666666666,3876.30859375,855.25C3876.30859375,876.8333333333334,3876.30859375,898.4166666666666,3876.30859375,920C3876.30859375,941.5833333333334,3876.30859375,963.1666666666666,3876.30859375,984.75C3876.30859375,1006.3333333333334,3876.30859375,1027.9166666666667,3876.30859375,1049.5C3876.30859375,1071.0833333333333,3876.30859375,1092.6666666666667,3876.30859375,1114.25C3876.30859375,1135.8333333333333,3876.30859375,1157.4166666666667,3876.30859375,1179C3876.30859375,1200.5833333333333,3876.30859375,1222.1666666666667,3876.30859375,1243.75C3876.30859375,1265.3333333333333,3876.30859375,1286.9166666666667,3876.30859375,1308.5C3876.30859375,1330.0833333333333,3876.30859375,1351.6666666666667,3876.30859375,1373.25C3876.30859375,1394.8333333333333,3876.30859375,1416.4166666666667,3876.30859375,1438C3876.30859375,1459.5833333333333,3876.30859375,1481.1666666666667,3876.30859375,1502.75C3876.30859375,1524.3333333333333,3876.30859375,1545.9166666666667,3876.30859375,1567.5C3876.30859375,1589.0833333333333,3876.30859375,1610.6666666666667,3876.30859375,1632.25C3876.30859375,1653.8333333333333,3876.30859375,1675.4166666666667,3876.30859375,1697C3876.30859375,1718.5833333333333,3876.30859375,1740.1666666666667,3876.30859375,1761.75C3876.30859375,1783.3333333333333,3876.30859375,1804.9166666666667,3595.4381510416665,1825.9677851550362C3314.5677083333335,1847.0189036434058,2752.8268229166665,1867.5378072868116,2471.9563802083335,1877.7972591085145L2191.0859375,1888.0567109302176" id="edge20" class="transition" marker-end="url(#statediagram-barbEnd)"></path><path d="M1923.8374457046332,1274L1932.632767253861,1279.75C1941.4280888030887,1285.5,1959.0187319015442,1297,1967.8140534507722,1308.5C1976.609375,1320,1976.609375,1331.5,1976.609375,1337.25L1976.609375,1343" id="edge21" class="transition" marker-end="url(#statediagram-barbEnd)"></path><path d="M1873.7578125,1392.2051877876854L1832.34375,1399.8376564897378C1790.9296875,1407.4701251917904,1708.1015625,1422.7350625958952,1666.6875,1441.1591979646143C1625.2734375,1459.5833333333333,1625.2734375,1481.1666666666667,1625.2734375,1502.75C1625.2734375,1524.3333333333333,1625.2734375,1545.9166666666667,1625.2734375,1567.5C1625.2734375,1589.0833333333333,1625.2734375,1610.6666666666667,1625.2734375,1632.25C1625.2734375,1653.8333333333333,1625.2734375,1675.4166666666667,1625.2734375,1697C1625.2734375,1718.5833333333333,1625.2734375,1740.1666666666667,1625.2734375,1761.75C1625.2734375,1783.3333333333333,1625.2734375,1804.9166666666667,1690.4348958333333,1824.5279134141165C1755.5963541666667,1844.139160161566,1885.9192708333333,1861.778320323132,1951.0807291666667,1870.5979004039152L2016.2421875,1879.417480484698" id="edge22" class="transition" marker-end="url(#statediagram-barbEnd)"></path><path d="M2246.30078125,1525.5182532469591L2206.357421875,1532.5152110391325C2166.4140625,1539.5121688313059,2086.52734375,1553.506084415653,2046.583984375,1571.2947088744932C2006.640625,1589.0833333333333,2006.640625,1610.6666666666667,2006.640625,1632.25C2006.640625,1653.8333333333333,2006.640625,1675.4166666666667,2006.640625,1697C2006.640625,1718.5833333333333,2006.640625,1740.1666666666667,2006.640625,1761.75C2006.640625,1783.3333333333333,2006.640625,1804.9166666666667,2015.2566059362935,1821.4583333333333C2023.872586872587,1838,2041.1045487451738,1849.5,2049.7205296814673,1855.25L2058.3365106177607,1861" id="edge23" class="transition" marker-end="url(#statediagram-barbEnd)"></path><path d="M3279.48828125,1790.069932360016L3248.7291666666665,1796.1416103000136C3217.9700520833335,1802.2132882400108,3156.4518229166665,1814.3566441200055,2975.0514322916665,1830.2682518835272C2793.6510416666665,1846.179859647049,2492.3684895833335,1865.8597192940977,2341.7272135416665,1875.6996491176221L2191.0859375,1885.5395789411464" id="edge24" class="transition" marker-end="url(#statediagram-barbEnd)"></path><path d="M1926.9749939671815,1403.5L1917.5403595559847,1409.25C1908.1057251447876,1415,1889.236456322394,1426.5,1879.801821911197,1443.0416666666667C1870.3671875,1459.5833333333333,1870.3671875,1481.1666666666667,1870.3671875,1502.75C1870.3671875,1524.3333333333333,1870.3671875,1545.9166666666667,1870.3671875,1567.5C1870.3671875,1589.0833333333333,1870.3671875,1610.6666666666667,1870.3671875,1632.25C1870.3671875,1653.8333333333333,1870.3671875,1675.4166666666667,1870.3671875,1697C1870.3671875,1718.5833333333333,1870.3671875,1740.1666666666667,1870.3671875,1761.75C1870.3671875,1783.3333333333333,1870.3671875,1804.9166666666667,1894.6796875,1822.4561064228785C1918.9921875,1839.9955461790905,1967.6171875,1853.491092358181,1991.9296875,1860.2388654477263L2016.2421875,1866.9866385372713" id="edge25" class="transition" marker-end="url(#statediagram-barbEnd)"></path><path d="M2079.4609375,1389.9129282118947L2128.9303385416665,1397.927440176579C2178.3997395833335,1405.941952141263,2277.3385416666665,1421.9709760706317,2326.8079427083335,1435.735488035316C2376.27734375,1449.5,2376.27734375,1461,2376.27734375,1466.75L2376.27734375,1472.5" id="edge26" class="transition" marker-end="url(#statediagram-barbEnd)"></path><path d="M2321.7831805019305,1533L2311.424785834942,1538.75C2301.0663911679535,1544.5,2280.349601833977,1556,2269.9912071669883,1572.5416666666667C2259.6328125,1589.0833333333333,2259.6328125,1610.6666666666667,2259.6328125,1632.25C2259.6328125,1653.8333333333333,2259.6328125,1675.4166666666667,2259.6328125,1697C2259.6328125,1718.5833333333333,2259.6328125,1740.1666666666667,2259.6328125,1761.75C2259.6328125,1783.3333333333333,2259.6328125,1804.9166666666667,2245.7823057432433,1821.4583333333333C2231.9317989864867,1838,2204.230785472973,1849.5,2190.3802787162163,1855.25L2176.5297719594596,1861" id="edge27" class="transition" marker-end="url(#statediagram-barbEnd)"></path><path d="M2506.25390625,1519.1473080757726L2570.1334635416665,1527.2060900631438C2634.0130208333335,1535.264872050515,2761.7721354166665,1551.3824360252574,2825.6516927083335,1565.1912180126285C2889.53125,1579,2889.53125,1590.5,2889.53125,1596.25L2889.53125,1602" id="edge28" class="transition" marker-end="url(#statediagram-barbEnd)"></path><path d="M2772.8671875,1647.8019558329179L2711.3567708333335,1656.001629860765C2649.8463541666665,1664.2013038886118,2526.8255208333335,1680.600651944306,2465.3151041666665,1699.5919926388196C2403.8046875,1718.5833333333333,2403.8046875,1740.1666666666667,2403.8046875,1761.75C2403.8046875,1783.3333333333333,2403.8046875,1804.9166666666667,2368.3515625,1823.3567143005882C2332.8984375,1841.79676193451,2261.9921875,1857.09352386902,2226.5390625,1864.7419048362747L2191.0859375,1872.3902858035297" id="edge29" class="transition" marker-end="url(#statediagram-barbEnd)"></path><path d="M2785.2439370173747,1662.5L2765.4207287644786,1668.25C2745.597520511583,1674,2705.9511040057914,1685.5,2686.1278957528957,1702.0416666666667C2666.3046875,1718.5833333333333,2666.3046875,1740.1666666666667,2666.3046875,1761.75C2666.3046875,1783.3333333333333,2666.3046875,1804.9166666666667,2587.1015625,1824.823214335305C2507.8984375,1844.7297620039435,2349.4921875,1862.959524007887,2270.2890625,1872.0744050098585L2191.0859375,1881.1892860118303" id="edge30" class="transition" marker-end="url(#statediagram-barbEnd)"></path><path d="M2913.9122828185327,1662.5L2918.546694015444,1668.25C2923.1811052123553,1674,2932.4499276061774,1685.5,2937.0843388030885,1702.0416666666667C2941.71875,1718.5833333333333,2941.71875,1740.1666666666667,2941.71875,1761.75C2941.71875,1783.3333333333333,2941.71875,1804.9166666666667,2816.61328125,1825.3742647127367C2691.5078125,1845.8318627588071,2441.296875,1865.1637255176145,2316.19140625,1874.829656897018L2191.0859375,1884.4955882764214" id="edge31" class="transition" marker-end="url(#statediagram-barbEnd)"></path><path d="M3006.1953125,1646.4112916218137L3075.6555989583335,1654.8427430181782C3145.1158854166665,1663.2741944145425,3284.0364583333335,1680.1370972072712,3353.4967447916665,1694.3185486036357C3422.95703125,1708.5,3422.95703125,1720,3422.95703125,1725.75L3422.95703125,1731.5" id="edge32" class="transition" marker-end="url(#statediagram-barbEnd)"></path><path d="M3350.0694226592664,1792L3336.214753257722,1797.75C3322.3600838561774,1803.5,3294.6507450530885,1815,3280.7960756515445,1831.5416666666667C3266.94140625,1848.0833333333333,3266.94140625,1869.6666666666667,3266.94140625,1891.25C3266.94140625,1912.8333333333333,3266.94140625,1934.4166666666667,3247.9036900788833,1950.9583333333333C3228.865973907767,1967.5,3190.7905415655346,1979,3171.752825394418,1984.75L3152.715109223301,1990.5" id="edge33" class="transition" marker-end="url(#statediagram-barbEnd)"></path><path d="M3446.1555109797296,1792L3450.565139358108,1797.75C3454.9747677364867,1803.5,3463.7940244932433,1815,3468.2036528716217,1831.5416666666667C3472.61328125,1848.0833333333333,3472.61328125,1869.6666666666667,3472.61328125,1891.25C3472.61328125,1912.8333333333333,3472.61328125,1934.4166666666667,3453.5755650788833,1950.9583333333333C3434.537848907767,1967.5,3396.4624165655346,1979,3377.424700394418,1984.75L3358.386984223301,1990.5" id="edge34" class="transition" marker-end="url(#statediagram-barbEnd)"></path><path d="M3559.078381394788,1792L3584.9526876206564,1797.75C3610.826993846525,1803.5,3662.5756062982623,1815,3688.4499125241314,1831.5416666666667C3714.32421875,1848.0833333333333,3714.32421875,1869.6666666666667,3714.32421875,1891.25C3714.32421875,1912.8333333333333,3714.32421875,1934.4166666666667,3717.6157273968442,1950.9583333333333C3720.9072360436894,1967.5,3727.490253337379,1979,3730.781761984223,1984.75L3734.0732706310678,1990.5" id="edge35" class="transition" marker-end="url(#statediagram-barbEnd)"></path><path d="M2103.6640625,1921.5L2103.6640625,1927.25C2103.6640625,1933,2103.6640625,1944.5,2365.6471354166665,1958.4762021009376C2627.6302083333335,1972.4524042018754,3151.5963541666665,1988.904808403751,3413.5794270833335,1997.1310105046887L3675.5625,2005.3572126056265" id="edge36" class="transition" marker-end="url(#statediagram-barbEnd)"></path><path d="M773.5277811293436,1792L786.1364321911196,1797.75C798.7450832528957,1803.5,823.9623853764479,1815,836.5710364382239,1831.5416666666667C849.1796875,1848.0833333333333,849.1796875,1869.6666666666667,849.1796875,1891.25C849.1796875,1912.8333333333333,849.1796875,1934.4166666666667,1320.2434895833333,1953.5893104226943C1791.3072916666667,1972.761954178722,2733.4348958333335,1989.523908357444,3204.4986979166665,1997.9048854468049L3675.5625,2006.2858625361662" id="edge37" class="transition" marker-end="url(#statediagram-barbEnd)"></path><path d="M2561.28125,237.62372834276587L2820.119140625,246.51977361897158C3078.95703125,255.41581889517724,3596.6328125,273.20790944758863,3855.470703125,287.8539547237943C4114.30859375,302.5,4114.30859375,314,4114.30859375,330.5416666666667C4114.30859375,347.0833333333333,4114.30859375,368.6666666666667,4114.30859375,390.25C4114.30859375,411.8333333333333,4114.30859375,433.4166666666667,4114.30859375,452.7916666666667C4114.30859375,472.1666666666667,4114.30859375,489.3333333333333,4114.30859375,506.5C4114.30859375,523.6666666666666,4114.30859375,540.8333333333334,4114.30859375,558C4114.30859375,575.1666666666666,4114.30859375,592.3333333333334,4114.30859375,609.5C4114.30859375,626.6666666666666,4114.30859375,643.8333333333334,4114.30859375,663.2083333333334C4114.30859375,682.5833333333334,4114.30859375,704.1666666666666,4114.30859375,725.75C4114.30859375,747.3333333333334,4114.30859375,768.9166666666666,4114.30859375,790.5C4114.30859375,812.0833333333334,4114.30859375,833.6666666666666,4114.30859375,855.25C4114.30859375,876.8333333333334,4114.30859375,898.4166666666666,4114.30859375,920C4114.30859375,941.5833333333334,4114.30859375,963.1666666666666,4114.30859375,984.75C4114.30859375,1006.3333333333334,4114.30859375,1027.9166666666667,4114.30859375,1049.5C4114.30859375,1071.0833333333333,4114.30859375,1092.6666666666667,4114.30859375,1114.25C4114.30859375,1135.8333333333333,4114.30859375,1157.4166666666667,4114.30859375,1179C4114.30859375,1200.5833333333333,4114.30859375,1222.1666666666667,4114.30859375,1243.75C4114.30859375,1265.3333333333333,4114.30859375,1286.9166666666667,4114.30859375,1308.5C4114.30859375,1330.0833333333333,4114.30859375,1351.6666666666667,4114.30859375,1373.25C4114.30859375,1394.8333333333333,4114.30859375,1416.4166666666667,4114.30859375,1438C4114.30859375,1459.5833333333333,4114.30859375,1481.1666666666667,4114.30859375,1502.75C4114.30859375,1524.3333333333333,4114.30859375,1545.9166666666667,4114.30859375,1567.5C4114.30859375,1589.0833333333333,4114.30859375,1610.6666666666667,4114.30859375,1632.25C4114.30859375,1653.8333333333333,4114.30859375,1675.4166666666667,4114.30859375,1697C4114.30859375,1718.5833333333333,4114.30859375,1740.1666666666667,4114.30859375,1761.75C4114.30859375,1783.3333333333333,4114.30859375,1804.9166666666667,4114.30859375,1826.5C4114.30859375,1848.0833333333333,4114.30859375,1869.6666666666667,4114.30859375,1891.25C4114.30859375,1912.8333333333333,4114.30859375,1934.4166666666667,4063.931640625,1952.210723975301C4013.5546875,1970.0047812839355,3912.80078125,1984.0095625678712,3862.423828125,1991.0119532098388L3812.046875,1998.0143438518066" id="edge38" class="transition" marker-end="url(#statediagram-barbEnd)"></path><path d="M2549.8046875,395.2563310712138L2794.552734375,405.21360922601156C3039.30078125,415.17088738080923,3528.796875,435.08544369040465,3773.544921875,453.62605517853564C4018.29296875,472.1666666666667,4018.29296875,489.3333333333333,4018.29296875,506.5C4018.29296875,523.6666666666666,4018.29296875,540.8333333333334,4018.29296875,558C4018.29296875,575.1666666666666,4018.29296875,592.3333333333334,4018.29296875,609.5C4018.29296875,626.6666666666666,4018.29296875,643.8333333333334,4018.29296875,663.2083333333334C4018.29296875,682.5833333333334,4018.29296875,704.1666666666666,4018.29296875,725.75C4018.29296875,747.3333333333334,4018.29296875,768.9166666666666,4018.29296875,790.5C4018.29296875,812.0833333333334,4018.29296875,833.6666666666666,4018.29296875,855.25C4018.29296875,876.8333333333334,4018.29296875,898.4166666666666,4018.29296875,920C4018.29296875,941.5833333333334,4018.29296875,963.1666666666666,4018.29296875,984.75C4018.29296875,1006.3333333333334,4018.29296875,1027.9166666666667,4018.29296875,1049.5C4018.29296875,1071.0833333333333,4018.29296875,1092.6666666666667,4018.29296875,1114.25C4018.29296875,1135.8333333333333,4018.29296875,1157.4166666666667,4018.29296875,1179C4018.29296875,1200.5833333333333,4018.29296875,1222.1666666666667,4018.29296875,1243.75C4018.29296875,1265.3333333333333,4018.29296875,1286.9166666666667,4018.29296875,1308.5C4018.29296875,1330.0833333333333,4018.29296875,1351.6666666666667,4018.29296875,1373.25C4018.29296875,1394.8333333333333,4018.29296875,1416.4166666666667,4018.29296875,1438C4018.29296875,1459.5833333333333,4018.29296875,1481.1666666666667,4018.29296875,1502.75C4018.29296875,1524.3333333333333,4018.29296875,1545.9166666666667,4018.29296875,1567.5C4018.29296875,1589.0833333333333,4018.29296875,1610.6666666666667,4018.29296875,1632.25C4018.29296875,1653.8333333333333,4018.29296875,1675.4166666666667,4018.29296875,1697C4018.29296875,1718.5833333333333,4018.29296875,1740.1666666666667,4018.29296875,1761.75C4018.29296875,1783.3333333333333,4018.29296875,1804.9166666666667,4018.29296875,1826.5C4018.29296875,1848.0833333333333,4018.29296875,1869.6666666666667,4018.29296875,1891.25C4018.29296875,1912.8333333333333,4018.29296875,1934.4166666666667,3983.9186197916665,1951.657712386211C3949.5442708333335,1968.8987581057554,3880.7955729166665,1981.7975162115108,3846.4212239583335,1988.2468952643885L3812.046875,1994.6962743172664" id="edge39" class="transition" marker-end="url(#statediagram-barbEnd)"></path><path d="M2907.87109375,864.2206899078983L3045.61328125,873.5172415899152C3183.35546875,882.8137932719322,3458.83984375,901.4068966359661,3596.58203125,921.4951149846497C3734.32421875,941.5833333333334,3734.32421875,963.1666666666666,3734.32421875,984.75C3734.32421875,1006.3333333333334,3734.32421875,1027.9166666666667,3734.32421875,1049.5C3734.32421875,1071.0833333333333,3734.32421875,1092.6666666666667,3734.32421875,1114.25C3734.32421875,1135.8333333333333,3734.32421875,1157.4166666666667,3734.32421875,1179C3734.32421875,1200.5833333333333,3734.32421875,1222.1666666666667,3734.32421875,1243.75C3734.32421875,1265.3333333333333,3734.32421875,1286.9166666666667,3734.32421875,1308.5C3734.32421875,1330.0833333333333,3734.32421875,1351.6666666666667,3734.32421875,1373.25C3734.32421875,1394.8333333333333,3734.32421875,1416.4166666666667,3734.32421875,1438C3734.32421875,1459.5833333333333,3734.32421875,1481.1666666666667,3734.32421875,1502.75C3734.32421875,1524.3333333333333,3734.32421875,1545.9166666666667,3734.32421875,1567.5C3734.32421875,1589.0833333333333,3734.32421875,1610.6666666666667,3734.32421875,1632.25C3734.32421875,1653.8333333333333,3734.32421875,1675.4166666666667,3734.32421875,1697C3734.32421875,1718.5833333333333,3734.32421875,1740.1666666666667,3734.32421875,1761.75C3734.32421875,1783.3333333333333,3734.32421875,1804.9166666666667,3477.1178385416665,1825.9214442961895C3219.9114583333335,1846.9262219257123,2705.4986979166665,1867.3524438514244,2448.2923177083335,1877.5655548142806L2191.0859375,1887.778665777137" id="edge40" class="transition" marker-end="url(#statediagram-barbEnd)"></path><path d="M3743.8046875,2024.5L3743.8046875,2028.6666666666667C3743.8046875,2032.8333333333333,3743.8046875,2041.1666666666667,3720.078875488174,2050.422005986845C3696.353063476349,2059.677345307023,3648.901439452698,2069.8546906140464,3625.175627440872,2074.9433632675577L3601.4498154290463,2080.0320359210696" id="edge41" class="transition" marker-end="url(#statediagram-barbEnd)"></path><path d="M3096.4296875,2024.5L3096.4296875,2028.6666666666667C3096.4296875,2032.8333333333333,3096.4296875,2041.1666666666667,3178.294717149596,2050.5918807123608C3260.1597467991924,2060.017094758055,3423.8898060983847,2070.5341895161096,3505.754835747981,2075.792736895137L3587.6198653975766,2081.051284274164" id="edge42" class="transition" marker-end="url(#statediagram-barbEnd)"></path><path d="M3302.1015625,2024.5L3302.1015625,2028.6666666666667C3302.1015625,2032.8333333333333,3302.1015625,2041.1666666666667,3349.692466399812,2050.5397900412736C3397.2833702996245,2059.91291341588,3492.4651780992485,2070.3258268317604,3540.0560819990606,2075.5322835397005L3587.6469858988726,2080.7387402476406" id="edge43" class="transition" marker-end="url(#statediagram-barbEnd)"></path></g><g class="edgeLabels"><g class="edgeLabel"><g class="label" transform="translate(0, 0)"><rect rx="0" ry="0" width="0" height="0" style="fill:#e8e8e8;"></rect><text style=""></text></g></g><g class="edgeLabel"><g class="label" transform="translate(0, 0)"><rect rx="0" ry="0" width="0" height="0" style="fill:#e8e8e8;"></rect><text style=""></text></g></g><g class="edgeLabel" transform="translate(473.0703125, 165.5)"><g class="label" transform="translate(-68.6875, -9.5)"><rect rx="0" ry="0" width="137.296875" height="19.03125" style="fill:#e8e8e8;"></rect><text style=""><tspan xml:space="preserve" dy="1em" x="0" class="row">ProviderEventOpen</tspan></text></g></g><g class="edgeLabel" transform="translate(648.09375, 984.75)"><g class="label" transform="translate(-98.203125, -9.5)"><rect rx="0" ry="0" width="196.296875" height="19.03125" style="fill:#e8e8e8;"></rect><text style=""><tspan xml:space="preserve" dy="1em" x="0" class="row">ProviderEventDealRejected</tspan></text></g></g><g class="edgeLabel" transform="translate(803.8515625, 1049.5)"><g class="label" transform="translate(-98.203125, -9.5)"><rect rx="0" ry="0" width="196.296875" height="19.03125" style="fill:#e8e8e8;"></rect><text style=""><tspan xml:space="preserve" dy="1em" x="0" class="row">ProviderEventDealRejected</tspan></text></g></g><g class="edgeLabel" transform="translate(1195.046875, 1243.75)"><g class="label" transform="translate(-98.203125, -9.5)"><rect rx="0" ry="0" width="196.296875" height="19.03125" style="fill:#e8e8e8;"></rect><text style=""><tspan xml:space="preserve" dy="1em" x="0" class="row">ProviderEventDealRejected</tspan></text></g></g><g class="edgeLabel" transform="translate(464.9609375, 1826.5)"><g class="label" transform="translate(-100.25, -9.5)"><rect rx="0" ry="0" width="200.390625" height="19.03125" style="fill:#e8e8e8;"></rect><text style=""><tspan xml:space="preserve" dy="1em" x="0" class="row">ProviderEventRejectionSent</tspan></text></g></g><g class="edgeLabel" transform="translate(2426.75, 325.5)"><g class="label" transform="translate(-96.5703125, -9.5)"><rect rx="0" ry="0" width="193.03125" height="19.03125" style="fill:#e8e8e8;"></rect><text style=""><tspan xml:space="preserve" dy="1em" x="0" class="row">ProviderEventDealDeciding</tspan></text></g></g><g class="edgeLabel" transform="translate(1600.07421875, 455)"><g class="label" transform="translate(-104.03125, -9.5)"><rect rx="0" ry="0" width="207.9375" height="19.03125" style="fill:#e8e8e8;"></rect><text style=""><tspan xml:space="preserve" dy="1em" x="0" class="row">ProviderEventDataRequested</tspan></text></g></g><g class="edgeLabel" transform="translate(958.3984375, 1243.75)"><g class="label" transform="translate(-118.4453125, -9.5)"><rect rx="0" ry="0" width="236.75" height="19.03125" style="fill:#e8e8e8;"></rect><text style=""><tspan xml:space="preserve" dy="1em" x="0" class="row">ProviderEventDataTransferFailed</tspan></text></g></g><g class="edgeLabel" transform="translate(1256.90234375, 558)"><g class="label" transform="translate(-127.109375, -9.5)"><rect rx="0" ry="0" width="254.0625" height="19.03125" style="fill:#e8e8e8;"></rect><text style=""><tspan xml:space="preserve" dy="1em" x="0" class="row">ProviderEventDataTransferInitiated</tspan></text></g></g><g class="edgeLabel" transform="translate(1345.46875, 661)"><g class="label" transform="translate(-135.4765625, -9.5)"><rect rx="0" ry="0" width="270.78125" height="19.03125" style="fill:#e8e8e8;"></rect><text style=""><tspan xml:space="preserve" dy="1em" x="0" class="row">ProviderEventDataTransferCompleted</tspan></text></g></g><g class="edgeLabel" transform="translate(1345.46875, 1308.5)"><g class="label" transform="translate(-130.421875, -9.5)"><rect rx="0" ry="0" width="260.6875" height="19.03125" style="fill:#e8e8e8;"></rect><text style=""><tspan xml:space="preserve" dy="1em" x="0" class="row">ProviderEventDataVerificationFailed</tspan></text></g></g><g class="edgeLabel" transform="translate(3703.78125, 661)"><g class="label" transform="translate(-95.1015625, -9.5)"><rect rx="0" ry="0" width="190.078125" height="19.03125" style="fill:#e8e8e8;"></rect><text style=""><tspan xml:space="preserve" dy="1em" x="0" class="row">ProviderEventVerifiedData</tspan></text></g></g><g class="edgeLabel" transform="translate(1672.66796875, 790.5)"><g class="label" transform="translate(-95.1015625, -9.5)"><rect rx="0" ry="0" width="190.078125" height="19.03125" style="fill:#e8e8e8;"></rect><text style=""><tspan xml:space="preserve" dy="1em" x="0" class="row">ProviderEventVerifiedData</tspan></text></g></g><g class="edgeLabel" transform="translate(1495.5234375, 920)"><g class="label" transform="translate(-108.6953125, -9.5)"><rect rx="0" ry="0" width="217.265625" height="19.03125" style="fill:#e8e8e8;"></rect><text style=""><tspan xml:space="preserve" dy="1em" x="0" class="row">ProviderEventFundingInitiated</tspan></text></g></g><g class="edgeLabel" transform="translate(3516.9765625, 984.75)"><g class="label" transform="translate(-76.3203125, -9.5)"><rect rx="0" ry="0" width="152.546875" height="19.03125" style="fill:#e8e8e8;"></rect><text style=""><tspan xml:space="preserve" dy="1em" x="0" class="row">ProviderEventFunded</tspan></text></g></g><g class="edgeLabel" transform="translate(1495.5234375, 1049.5)"><g class="label" transform="translate(-76.3203125, -9.5)"><rect rx="0" ry="0" width="152.546875" height="19.03125" style="fill:#e8e8e8;"></rect><text style=""><tspan xml:space="preserve" dy="1em" x="0" class="row">ProviderEventFunded</tspan></text></g></g><g class="edgeLabel" transform="translate(1877.56640625, 1179)"><g class="label" transform="translate(-122, -9.5)"><rect rx="0" ry="0" width="243.859375" height="19.03125" style="fill:#e8e8e8;"></rect><text style=""><tspan xml:space="preserve" dy="1em" x="0" class="row">ProviderEventDealPublishInitiated</tspan></text></g></g><g class="edgeLabel" transform="translate(1495.890625, 1567.5)"><g class="label" transform="translate(-109.3828125, -9.5)"><rect rx="0" ry="0" width="218.625" height="19.03125" style="fill:#e8e8e8;"></rect><text style=""><tspan xml:space="preserve" dy="1em" x="0" class="row">ProviderEventDealPublishError</tspan></text></g></g><g class="edgeLabel" transform="translate(707.1953125, 1826.5)"><g class="label" transform="translate(-121.984375, -9.5)"><rect rx="0" ry="0" width="243.828125" height="19.03125" style="fill:#e8e8e8;"></rect><text style=""><tspan xml:space="preserve" dy="1em" x="0" class="row">ProviderEventSendResponseFailed</tspan></text></g></g><g class="edgeLabel" transform="translate(3876.30859375, 1114.25)"><g class="label" transform="translate(-121.984375, -9.5)"><rect rx="0" ry="0" width="243.828125" height="19.03125" style="fill:#e8e8e8;"></rect><text style=""><tspan xml:space="preserve" dy="1em" x="0" class="row">ProviderEventSendResponseFailed</tspan></text></g></g><g class="edgeLabel" transform="translate(1976.609375, 1308.5)"><g class="label" transform="translate(-100.296875, -9.5)"><rect rx="0" ry="0" width="200.46875" height="19.03125" style="fill:#e8e8e8;"></rect><text style=""><tspan xml:space="preserve" dy="1em" x="0" class="row">ProviderEventDealPublished</tspan></text></g></g><g class="edgeLabel" transform="translate(1625.2734375, 1632.25)"><g class="label" transform="translate(-108.8203125, -9.5)"><rect rx="0" ry="0" width="217.5" height="19.03125" style="fill:#e8e8e8;"></rect><text style=""><tspan xml:space="preserve" dy="1em" x="0" class="row">ProviderEventFileStoreErrored</tspan></text></g></g><g class="edgeLabel" transform="translate(2006.640625, 1697)"><g class="label" transform="translate(-108.8203125, -9.5)"><rect rx="0" ry="0" width="217.5" height="19.03125" style="fill:#e8e8e8;"></rect><text style=""><tspan xml:space="preserve" dy="1em" x="0" class="row">ProviderEventFileStoreErrored</tspan></text></g></g><g class="edgeLabel" transform="translate(3094.93359375, 1826.5)"><g class="label" transform="translate(-108.8203125, -9.5)"><rect rx="0" ry="0" width="217.5" height="19.03125" style="fill:#e8e8e8;"></rect><text style=""><tspan xml:space="preserve" dy="1em" x="0" class="row">ProviderEventFileStoreErrored</tspan></text></g></g><g class="edgeLabel" transform="translate(1870.3671875, 1632.25)"><g class="label" transform="translate(-116.2734375, -9.5)"><rect rx="0" ry="0" width="232.40625" height="19.03125" style="fill:#e8e8e8;"></rect><text style=""><tspan xml:space="preserve" dy="1em" x="0" class="row">ProviderEventDealHandoffFailed</tspan></text></g></g><g class="edgeLabel" transform="translate(2376.27734375, 1438)"><g class="label" transform="translate(-104.3671875, -9.5)"><rect rx="0" ry="0" width="208.609375" height="19.03125" style="fill:#e8e8e8;"></rect><text style=""><tspan xml:space="preserve" dy="1em" x="0" class="row">ProviderEventDealHandedOff</tspan></text></g></g><g class="edgeLabel" transform="translate(2259.6328125, 1697)"><g class="label" transform="translate(-124.171875, -9.5)"><rect rx="0" ry="0" width="248.1875" height="19.03125" style="fill:#e8e8e8;"></rect><text style=""><tspan xml:space="preserve" dy="1em" x="0" class="row">ProviderEventDealActivationFailed</tspan></text></g></g><g class="edgeLabel" transform="translate(2889.53125, 1567.5)"><g class="label" transform="translate(-100.1796875, -9.5)"><rect rx="0" ry="0" width="200.25" height="19.03125" style="fill:#e8e8e8;"></rect><text style=""><tspan xml:space="preserve" dy="1em" x="0" class="row">ProviderEventDealActivated</tspan></text></g></g><g class="edgeLabel" transform="translate(2403.8046875, 1761.75)"><g class="label" transform="translate(-115.046875, -9.5)"><rect rx="0" ry="0" width="229.953125" height="19.03125" style="fill:#e8e8e8;"></rect><text style=""><tspan xml:space="preserve" dy="1em" x="0" class="row">ProviderEventPieceStoreErrored</tspan></text></g></g><g class="edgeLabel" transform="translate(2666.3046875, 1761.75)"><g class="label" transform="translate(-127.453125, -9.5)"><rect rx="0" ry="0" width="254.75" height="19.03125" style="fill:#e8e8e8;"></rect><text style=""><tspan xml:space="preserve" dy="1em" x="0" class="row">ProviderEventUnableToLocatePiece</tspan></text></g></g><g class="edgeLabel" transform="translate(2941.71875, 1761.75)"><g class="label" transform="translate(-127.9609375, -9.5)"><rect rx="0" ry="0" width="255.765625" height="19.03125" style="fill:#e8e8e8;"></rect><text style=""><tspan xml:space="preserve" dy="1em" x="0" class="row">ProviderEventReadMetadataErrored</tspan></text></g></g><g class="edgeLabel" transform="translate(3422.95703125, 1697)"><g class="label" transform="translate(-103.1953125, -9.5)"><rect rx="0" ry="0" width="206.265625" height="19.03125" style="fill:#e8e8e8;"></rect><text style=""><tspan xml:space="preserve" dy="1em" x="0" class="row">ProviderEventPieceRecorded</tspan></text></g></g><g class="edgeLabel" transform="translate(3266.94140625, 1891.25)"><g class="label" transform="translate(-92.7734375, -9.5)"><rect rx="0" ry="0" width="185.4375" height="19.03125" style="fill:#e8e8e8;"></rect><text style=""><tspan xml:space="preserve" dy="1em" x="0" class="row">ProviderEventDealSlashed</tspan></text></g></g><g class="edgeLabel" transform="translate(3472.61328125, 1891.25)"><g class="label" transform="translate(-92.8984375, -9.5)"><rect rx="0" ry="0" width="185.6875" height="19.03125" style="fill:#e8e8e8;"></rect><text style=""><tspan xml:space="preserve" dy="1em" x="0" class="row">ProviderEventDealExpired</tspan></text></g></g><g class="edgeLabel" transform="translate(3714.32421875, 1891.25)"><g class="label" transform="translate(-128.8125, -9.5)"><rect rx="0" ry="0" width="257.46875" height="19.03125" style="fill:#e8e8e8;"></rect><text style=""><tspan xml:space="preserve" dy="1em" x="0" class="row">ProviderEventDealCompletionFailed</tspan></text></g></g><g class="edgeLabel" transform="translate(2103.6640625, 1956)"><g class="label" transform="translate(-71.96875, -9.5)"><rect rx="0" ry="0" width="143.84375" height="19.03125" style="fill:#e8e8e8;"></rect><text style=""><tspan xml:space="preserve" dy="1em" x="0" class="row">ProviderEventFailed</tspan></text></g></g><g class="edgeLabel" transform="translate(849.1796875, 1891.25)"><g class="label" transform="translate(-76.015625, -9.5)"><rect rx="0" ry="0" width="151.9375" height="19.03125" style="fill:#e8e8e8;"></rect><text style=""><tspan xml:space="preserve" dy="1em" x="0" class="row">ProviderEventRestart</tspan></text></g></g><g class="edgeLabel" transform="translate(4114.30859375, 1114.25)"><g class="label" transform="translate(-76.015625, -9.5)"><rect rx="0" ry="0" width="151.9375" height="19.03125" style="fill:#e8e8e8;"></rect><text style=""><tspan xml:space="preserve" dy="1em" x="0" class="row">ProviderEventRestart</tspan></text></g></g><g class="edgeLabel" transform="translate(4018.29296875, 1179)"><g class="label" transform="translate(-76.015625, -9.5)"><rect rx="0" ry="0" width="151.9375" height="19.03125" style="fill:#e8e8e8;"></rect><text style=""><tspan xml:space="preserve" dy="1em" x="0" class="row">ProviderEventRestart</tspan></text></g></g><g class="edgeLabel" transform="translate(3734.32421875, 1373.25)"><g class="label" transform="translate(-112.5546875, -9.5)"><rect rx="0" ry="0" width="224.984375" height="19.03125" style="fill:#e8e8e8;"></rect><text style=""><tspan xml:space="preserve" dy="1em" x="0" class="row">ProviderEventTrackFundsFailed</tspan></text></g></g><g class="edgeLabel"><g class="label" transform="translate(0, 0)"><rect rx="0" ry="0" width="0" height="0" style="fill:#e8e8e8;"></rect><text style=""></text></g></g><g class="edgeLabel"><g class="label" transform="translate(0, 0)"><rect rx="0" ry="0" width="0" height="0" style="fill:#e8e8e8;"></rect><text style=""></text></g></g><g class="edgeLabel"><g class="label" transform="translate(0, 0)"><rect rx="0" ry="0" width="0" height="0" style="fill:#e8e8e8;"></rect><text style=""></text></g></g></g><g class="nodes"><g class="node statediagram-state" id="0" transform="translate(318.046875, 114)"><rect class="outer title-state" x="-82.921875" y="-17" width="165.84375" height="34"></rect><line class="divider" x1="-82.921875" x2="82.921875" y1="9.5" y2="9.5"></line><g class="label" transform="translate(-75.421875, -14)"><text style=""><tspan xml:space="preserve" dy="1em" x="0" class="title-row">StorageDealUnknown</tspan></text><text style="" transform="translate( 0, 26.5)"><tspan xml:space="preserve" dy="1em" x="0" class="title-row"></tspan></text></g></g><g class="node statediagram-state" id="4" transform="translate(1976.609375, 1373.25)"><rect class="outer title-state" x="-102.8515625" y="-30.25" width="205.703125" height="60.5"></rect><line class="divider" x1="-102.8515625" x2="102.8515625" y1="-3.75" y2="-3.75"></line><g class="label" transform="translate(-95.3515625, -27.25)"><text style=""><tspan xml:space="preserve" dy="1em" x="0" class="title-row">StorageDealStaged</tspan></text><text style="" transform="translate( 0, 26.5)"><tspan xml:space="preserve" dy="1em" x="0" class="title-row">On entry runs HandoffDeal</tspan></text></g></g><g class="node statediagram-state" id="5" transform="translate(2376.27734375, 1502.75)"><rect class="outer title-state" x="-129.9765625" y="-30.25" width="259.953125" height="60.5"></rect><line class="divider" x1="-129.9765625" x2="129.9765625" y1="-3.75" y2="-3.75"></line><g class="label" transform="translate(-122.4765625, -27.25)"><text style=""><tspan xml:space="preserve" dy="1em" x="0" class="title-row">StorageDealSealing</tspan></text><text style="" transform="translate( 0, 26.5)"><tspan xml:space="preserve" dy="1em" x="0" class="title-row">On entry runs VerifyDealActivated</tspan></text></g></g><g class="node statediagram-state" id="6" transform="translate(2889.53125, 1632.25)"><rect class="outer title-state" x="-116.6640625" y="-30.25" width="233.328125" height="60.5"></rect><line class="divider" x1="-116.6640625" x2="116.6640625" y1="-3.75" y2="-3.75"></line><g class="label" transform="translate(-109.1640625, -27.25)"><text style=""><tspan xml:space="preserve" dy="1em" x="0" class="title-row">&lt;invalid Value&gt;</tspan></text><text style="" transform="translate( 0, 26.5)"><tspan xml:space="preserve" dy="1em" x="0" class="title-row">On entry runs RecordPieceInfo</tspan></text></g></g><g class="node statediagram-state" id="7" transform="translate(3422.95703125, 1761.75)"><rect class="outer title-state" x="-143.46875" y="-30.25" width="286.9375" height="60.5"></rect><line class="divider" x1="-143.46875" x2="143.46875" y1="-3.75" y2="-3.75"></line><g class="label" transform="translate(-135.96875, -27.25)"><text style=""><tspan xml:space="preserve" dy="1em" x="0" class="title-row">StorageDealActive</tspan></text><text style="" transform="translate( 0, 26.5)"><tspan xml:space="preserve" dy="1em" x="0" class="title-row">On entry runs WaitForDealCompletion</tspan></text></g></g><g class="node statediagram-state" id="8" transform="translate(3302.1015625, 2007.5)"><rect class="outer title-state" x="-77.296875" y="-17" width="154.59375" height="34"></rect><line class="divider" x1="-77.296875" x2="77.296875" y1="9.5" y2="9.5"></line><g class="label" transform="translate(-69.796875, -14)"><text style=""><tspan xml:space="preserve" dy="1em" x="0" class="title-row">StorageDealExpired</tspan></text><text style="" transform="translate( 0, 26.5)"><tspan xml:space="preserve" dy="1em" x="0" class="title-row"></tspan></text></g></g><g class="node statediagram-state" id="9" transform="translate(3096.4296875, 2007.5)"><rect class="outer title-state" x="-77.1796875" y="-17" width="154.359375" height="34"></rect><line class="divider" x1="-77.1796875" x2="77.1796875" y1="9.5" y2="9.5"></line><g class="label" transform="translate(-69.6796875, -14)"><text style=""><tspan xml:space="preserve" dy="1em" x="0" class="title-row">StorageDealSlashed</tspan></text><text style="" transform="translate( 0, 26.5)"><tspan xml:space="preserve" dy="1em" x="0" class="title-row"></tspan></text></g></g><g class="node statediagram-state" id="10" transform="translate(707.1953125, 1761.75)"><rect class="outer title-state" x="-97.828125" y="-30.25" width="195.65625" height="60.5"></rect><line class="divider" x1="-97.828125" x2="97.828125" y1="-3.75" y2="-3.75"></line><g class="label" transform="translate(-90.328125, -27.25)"><text style=""><tspan xml:space="preserve" dy="1em" x="0" class="title-row">StorageDealRejecting</tspan></text><text style="" transform="translate( 0, 26.5)"><tspan xml:space="preserve" dy="1em" x="0" class="title-row">On entry runs RejectDeal</tspan></text></g></g><g class="node statediagram-state" id="11" transform="translate(2103.6640625, 1891.25)"><rect class="outer title-state" x="-87.421875" y="-30.25" width="174.84375" height="60.5"></rect><line class="divider" x1="-87.421875" x2="87.421875" y1="-3.75" y2="-3.75"></line><g class="label" transform="translate(-79.921875, -27.25)"><text style=""><tspan xml:space="preserve" dy="1em" x="0" class="title-row">StorageDealFailing</tspan></text><text style="" transform="translate( 0, 26.5)"><tspan xml:space="preserve" dy="1em" x="0" class="title-row">On entry runs FailDeal</tspan></text></g></g><g class="node statediagram-state" id="14" transform="translate(2426.75, 233)"><rect class="outer title-state" x="-134.53125" y="-30.25" width="269.0625" height="60.5"></rect><line class="divider" x1="-134.53125" x2="134.53125" y1="-3.75" y2="-3.75"></line><g class="label" transform="translate(-127.03125, -27.25)"><text style=""><tspan xml:space="preserve" dy="1em" x="0" class="title-row">StorageDealValidating</tspan></text><text style="" transform="translate( 0, 26.5)"><tspan xml:space="preserve" dy="1em" x="0" class="title-row">On entry runs ValidateDealProposal</tspan></text></g></g><g class="node statediagram-state" id="15" transform="translate(2426.75, 390.25)"><rect class="outer title-state" x="-123.0546875" y="-30.25" width="246.109375" height="60.5"></rect><line class="divider" x1="-123.0546875" x2="123.0546875" y1="-3.75" y2="-3.75"></line><g class="label" transform="translate(-115.5546875, -27.25)"><text style=""><tspan xml:space="preserve" dy="1em" x="0" class="title-row">StorageDealAcceptWait</tspan></text><text style="" transform="translate( 0, 26.5)"><tspan xml:space="preserve" dy="1em" x="0" class="title-row">On entry runs DecideOnProposal</tspan></text></g></g><g class="node statediagram-state" id="17" transform="translate(1256.90234375, 609.5)"><rect class="outer title-state" x="-94.109375" y="-17" width="188.21875" height="34"></rect><line class="divider" x1="-94.109375" x2="94.109375" y1="9.5" y2="9.5"></line><g class="label" transform="translate(-86.609375, -14)"><text style=""><tspan xml:space="preserve" dy="1em" x="0" class="title-row">StorageDealTransferring</tspan></text><text style="" transform="translate( 0, 26.5)"><tspan xml:space="preserve" dy="1em" x="0" class="title-row"></tspan></text></g></g><g class="node statediagram-state" id="18" transform="translate(1600.07421875, 506.5)"><rect class="outer title-state" x="-105.5625" y="-17" width="211.125" height="34"></rect><line class="divider" x1="-105.5625" x2="105.5625" y1="9.5" y2="9.5"></line><g class="label" transform="translate(-98.0625, -14)"><text style=""><tspan xml:space="preserve" dy="1em" x="0" class="title-row">StorageDealWaitingForData</tspan></text><text style="" transform="translate( 0, 26.5)"><tspan xml:space="preserve" dy="1em" x="0" class="title-row"></tspan></text></g></g><g class="node statediagram-state" id="19" transform="translate(1345.46875, 725.75)"><rect class="outer title-state" x="-96.3828125" y="-30.25" width="192.765625" height="60.5"></rect><line class="divider" x1="-96.3828125" x2="96.3828125" y1="-3.75" y2="-3.75"></line><g class="label" transform="translate(-88.8828125, -27.25)"><text style=""><tspan xml:space="preserve" dy="1em" x="0" class="title-row">StorageDealVerifyData</tspan></text><text style="" transform="translate( 0, 26.5)"><tspan xml:space="preserve" dy="1em" x="0" class="title-row">On entry runs VerifyData</tspan></text></g></g><g class="node statediagram-state" id="20" transform="translate(2774.95703125, 855.25)"><rect class="outer title-state" x="-132.9140625" y="-30.25" width="265.828125" height="60.5"></rect><line class="divider" x1="-132.9140625" x2="132.9140625" y1="-3.75" y2="-3.75"></line><g class="label" transform="translate(-125.4140625, -27.25)"><text style=""><tspan xml:space="preserve" dy="1em" x="0" class="title-row">StorageDealEnsureProviderFunds</tspan></text><text style="" transform="translate( 0, 26.5)"><tspan xml:space="preserve" dy="1em" x="0" class="title-row">On entry runs EnsureProviderFunds</tspan></text></g></g><g class="node statediagram-state" id="22" transform="translate(1495.5234375, 984.75)"><rect class="outer title-state" x="-114.6875" y="-30.25" width="229.375" height="60.5"></rect><line class="divider" x1="-114.6875" x2="114.6875" y1="-3.75" y2="-3.75"></line><g class="label" transform="translate(-107.1875, -27.25)"><text style=""><tspan xml:space="preserve" dy="1em" x="0" class="title-row">StorageDealProviderFunding</tspan></text><text style="" transform="translate( 0, 26.5)"><tspan xml:space="preserve" dy="1em" x="0" class="title-row">On entry runs WaitForFunding</tspan></text></g></g><g class="node statediagram-state" id="24" transform="translate(1877.56640625, 1114.25)"><rect class="outer title-state" x="-99.9140625" y="-30.25" width="199.828125" height="60.5"></rect><line class="divider" x1="-99.9140625" x2="99.9140625" y1="-3.75" y2="-3.75"></line><g class="label" transform="translate(-92.4140625, -27.25)"><text style=""><tspan xml:space="preserve" dy="1em" x="0" class="title-row">StorageDealPublish</tspan></text><text style="" transform="translate( 0, 26.5)"><tspan xml:space="preserve" dy="1em" x="0" class="title-row">On entry runs PublishDeal</tspan></text></g></g><g class="node statediagram-state" id="25" transform="translate(1877.56640625, 1243.75)"><rect class="outer title-state" x="-112.15625" y="-30.25" width="224.3125" height="60.5"></rect><line class="divider" x1="-112.15625" x2="112.15625" y1="-3.75" y2="-3.75"></line><g class="label" transform="translate(-104.65625, -27.25)"><text style=""><tspan xml:space="preserve" dy="1em" x="0" class="title-row">StorageDealPublishing</tspan></text><text style="" transform="translate( 0, 26.5)"><tspan xml:space="preserve" dy="1em" x="0" class="title-row">On entry runs WaitForPublish</tspan></text></g></g><g class="node statediagram-state" id="26" transform="translate(3743.8046875, 2007.5)"><rect class="outer title-state" x="-68.2421875" y="-17" width="136.484375" height="34"></rect><line class="divider" x1="-68.2421875" x2="68.2421875" y1="9.5" y2="9.5"></line><g class="label" transform="translate(-60.7421875, -14)"><text style=""><tspan xml:space="preserve" dy="1em" x="0" class="title-row">StorageDealError</tspan></text><text style="" transform="translate( 0, 26.5)"><tspan xml:space="preserve" dy="1em" x="0" class="title-row"></tspan></text></g></g><g class="node default" id="root_start" transform="translate(318.046875, 15)"><circle class="state-start" r="7" width="14" height="14"></circle></g><g class="node statediagram-note" id="0----note" transform="translate(318.046875, 233)"><rect x="-275.046875" y="-33" width="550.09375" height="66"></rect><g class="label" transform="translate(-267.546875, -25.5)"><text style=""><tspan xml:space="preserve" dy="1em" x="0" class="row">The following events are not shown cause they can trigger from any state.</tspan><tspan xml:space="preserve" dy="1em" x="0" class="row"></tspan><tspan xml:space="preserve" dy="1em" x="0" class="row">ProviderEventNodeErrored - transitions state to StorageDealFailing</tspan><tspan xml:space="preserve" dy="1em" x="0" class="row">ProviderEventRestart - does not transition state</tspan></text></g></g><g class="node default" id="root_end" transform="translate(3594.60546875, 2081.5)"><circle class="state-start" r="7" width="14" height="14"></circle><circle class="state-end" r="5" width="10" height="10"></circle></g></g></g></g></svg>